<svg width="40" height="40" viewBox="0 0 40 40" fill="none" xmlns="http://www.w3.org/2000/svg">
<path fill-rule="evenodd" clip-rule="evenodd" d="M6.46071 39H18.5393L19.9643 22.7647H5.03571L6.46071 39ZM17.9286 19.3824V18.0294C17.9286 17.4912 17.7141 16.975 17.3323 16.5944C16.9505 16.2138 16.4327 16 15.8929 16H9.10714C8.56724 16 8.04945 16.2138 7.66768 16.5944C7.2859 16.975 7.07143 17.4912 7.07143 18.0294V19.3824H3V21.4118H22V19.3824H17.9286ZM15.8929 19.3824H9.10714V18.7059C9.10714 18.5265 9.17864 18.3544 9.30589 18.2275C9.43315 18.1007 9.60574 18.0294 9.78571 18.0294H15.2143C15.3942 18.0294 15.5669 18.1007 15.6941 18.2275C15.8213 18.3544 15.8929 18.5265 15.8929 18.7059V19.3824Z" fill="#FF0000"/>
<path d="M15 2.52771C24.1822 13.3715 31.3757 25.7143 36.2567 39L40 37.66C34.9537 23.9509 27.5377 11.2089 18.0814 0L15 2.52771Z" fill="white"/>
</svg>
