<svg width="40" height="40" viewBox="0 0 40 40" fill="none" xmlns="http://www.w3.org/2000/svg">
<path fill-rule="evenodd" clip-rule="evenodd" d="M10.4643 37.9999H29.5357L31.7857 12.5881H8.21429L10.4643 37.9999ZM28.5714 7.294V5.17635C28.5714 4.3339 28.2327 3.52595 27.63 2.93025C27.0272 2.33454 26.2096 1.99988 25.3571 1.99988H14.6429C13.7904 1.99988 12.9728 2.33454 12.37 2.93025C11.7672 3.52595 11.4286 4.3339 11.4286 5.17635V7.294H5V10.4705H35V7.294H28.5714ZM25.3571 7.294H14.6429V6.23517C14.6429 5.95435 14.7557 5.68504 14.9567 5.48647C15.1576 5.28791 15.4301 5.17635 15.7143 5.17635H24.2857C24.5699 5.17635 24.8424 5.28791 25.0433 5.48647C25.2442 5.68504 25.3571 5.95435 25.3571 6.23517V7.294Z" fill="#000000"/>
</svg>
