<svg width="40" height="40" viewBox="0 0 40 40" fill="none" xmlns="http://www.w3.org/2000/svg">
<path d="M19.8 35C22.8063 35 25.745 34.1085 28.2447 32.4383C30.7443 30.7681 32.6925 28.3942 33.843 25.6168C34.9934 22.8394 35.2944 19.7831 34.7079 16.8346C34.1214 13.8861 32.6738 11.1777 30.548 9.05198C28.4223 6.92623 25.7139 5.47857 22.7654 4.89207C19.8169 4.30557 16.7606 4.60659 13.9832 5.75704C11.2058 6.90749 8.83186 8.85571 7.16166 11.3553C5.49146 13.855 4.6 16.7937 4.6 19.8C4.6 23.8313 6.20143 27.6975 9.05198 30.548C11.9025 33.3986 15.7687 35 19.8 35V35ZM21.3468 28.7412H18.3068L18.3068 16.5401L21.3468 16.5401V28.7412ZM19.7803 10.8427C20.0788 10.8519 20.368 10.9487 20.6118 11.1212C20.8555 11.2937 21.0431 11.5341 21.151 11.8126C21.259 12.091 21.2825 12.395 21.2187 12.6867C21.1549 12.9785 21.0066 13.2449 20.7923 13.4529C20.578 13.6608 20.3072 13.8011 20.0137 13.856C19.7202 13.911 19.417 13.8783 19.1419 13.762C18.8669 13.6458 18.6322 13.451 18.4671 13.2022C18.3021 12.9533 18.214 12.6614 18.2138 12.3627C18.22 11.9537 18.3882 11.5639 18.6816 11.2789C18.975 10.9939 19.3695 10.837 19.7785 10.8427H19.7803Z" fill="#000000"/>
</svg>
