<svg width="40" height="40" viewBox="0 0 40 40" fill="none" xmlns="http://www.w3.org/2000/svg">
<path d="M9.36502 19.7175H2L11.1984 28.9159L20.3968 19.7175H13.0319C13.0319 17.5343 13.6792 15.4002 14.8921 13.585C16.105 11.7698 17.8289 10.355 19.8459 9.5196C21.8629 8.68415 24.0822 8.46556 26.2234 8.89147C28.3646 9.31737 30.3314 10.3687 31.8752 11.9124C33.4188 13.4561 34.4701 15.4228 34.896 17.5641C35.3219 19.7052 35.1033 21.9247 34.2679 23.9416C33.4324 25.9586 32.0177 27.6825 30.2025 28.8953C28.3872 30.1082 26.2531 30.7556 24.07 30.7556V34.435C26.9814 34.4374 29.828 33.5764 32.25 31.9607C34.6719 30.345 36.5603 28.0474 37.6761 25.3583C38.7919 22.6692 39.0852 19.7097 38.5188 16.8539C37.9523 13.9982 36.5516 11.3746 34.4938 9.31509C32.436 7.25556 29.8136 5.85261 26.9583 5.28372C24.1031 4.71482 21.1432 5.00555 18.4533 6.11911C15.7633 7.23267 13.464 9.11904 11.8462 11.5396C10.2285 13.9601 9.36502 16.8062 9.36502 19.7175Z" fill="#000000"/>
</svg>
