<svg width="40" height="40" viewBox="0 0 40 40" fill="none" xmlns="http://www.w3.org/2000/svg">
<path fill-rule="evenodd" clip-rule="evenodd" d="M16.135 2C8.32846 2 2 8.4206 2 16.3408C2 24.261 8.32846 30.6816 16.135 30.6816C19.3828 30.6816 22.3748 29.5702 24.7617 27.7019L35.9998 38.8L38.8 35.8813L27.5621 24.7834C29.2651 22.4149 30.27 19.4969 30.27 16.3408C30.27 8.4206 23.9415 2 16.135 2ZM6.01471 16.3408C6.01471 10.6701 10.5457 6.07317 16.135 6.07317C21.7243 6.07317 26.2553 10.6701 26.2553 16.3408C26.2553 22.0115 21.7243 26.6084 16.135 26.6084C10.5457 26.6084 6.01471 22.0115 6.01471 16.3408Z" fill="#000000"/>
</svg>
