<svg width="40" height="40" viewBox="0 0 40 40" fill="none" xmlns="http://www.w3.org/2000/svg">
<path fill-rule="evenodd" clip-rule="evenodd" d="M38.678 34.5952L21.2376 4.05267C21.0735 3.73557 20.825 3.4696 20.5194 3.28391C20.2136 3.09823 19.8625 3 19.5043 3C19.1464 3 18.7952 3.09823 18.4894 3.28391C18.1837 3.4696 17.9352 3.73557 17.7712 4.05267L0.330831 34.5952C0.128466 34.8955 0.014323 35.2462 0.00126192 35.6078C-0.0117991 35.9694 0.0767411 36.3274 0.256907 36.6415C0.437073 36.9556 0.701705 37.2134 1.02099 37.3858C1.34027 37.5581 1.70153 37.6382 2.06403 37.617H36.9448L37.9197 37.4011C38.1511 37.2775 38.3551 37.1085 38.5194 36.9043C38.6837 36.7001 38.8049 36.465 38.8757 36.213C38.9465 35.961 38.9655 35.6974 38.9316 35.438C38.8976 35.1784 38.8113 34.9285 38.678 34.703V34.5952ZM21.6709 33.3H17.3379V28.9831H21.6709V33.3ZM21.6709 25.7453H17.3379V14.953H21.6709V25.7453Z" fill="#AAAAAA"/>
</svg>
