<svg width="40" height="40" viewBox="0 0 40 40" fill="none" xmlns="http://www.w3.org/2000/svg">
<path fill-rule="evenodd" clip-rule="evenodd" d="M20.2 5C17.1937 5 14.2549 5.89146 11.7553 7.56166C9.25571 9.23186 7.30749 11.6058 6.15704 14.3832C5.00659 17.1607 4.70558 20.2169 5.29207 23.1653C5.87857 26.1139 7.32622 28.8223 9.45199 30.948C11.5777 33.0738 14.2861 34.5214 17.2346 35.1079C20.1831 35.6945 23.2393 35.3934 26.0168 34.2429C28.7942 33.0925 31.1681 31.1443 32.8384 28.6447C34.5085 26.1451 35.4 23.2063 35.4 20.2C35.4 16.1687 33.7986 12.3025 30.948 9.45198C28.0975 6.60142 24.2313 5 20.2 5ZM21.8889 29.4889H18.5111V26.1111H21.8889V29.4889ZM22.7333 21.0444C22.4883 21.1311 22.2758 21.2909 22.1247 21.5025C21.9738 21.7139 21.8913 21.9667 21.8889 22.2267C21.8889 22.3956 21.8889 23.4089 21.8889 23.5778H18.5111V21.8889C18.4491 21.3354 18.5846 20.7777 18.8936 20.3142C19.2025 19.8507 19.6652 19.5113 20.2 19.3556C20.7348 19.1998 21.1975 18.8604 21.5064 18.3969C21.8154 17.9334 21.9509 17.3758 21.8889 16.8222C21.8889 15.9778 21.8889 15.1333 20.2 15.1333C18.5111 15.1333 18.5111 15.1333 18.5111 16.8222H15.1333C15.0829 16.144 15.1794 15.4627 15.4161 14.8252C15.6529 14.1876 16.0244 13.6085 16.5054 13.1276C16.9863 12.6466 17.5653 12.2751 18.203 12.0383C18.8405 11.8016 19.5217 11.7051 20.2 11.7556C20.8718 11.732 21.5411 11.8469 22.1665 12.0932C22.7919 12.3394 23.3599 12.7118 23.8352 13.1871C24.3104 13.6623 24.6828 14.2304 24.9291 14.8558C25.1754 15.4811 25.2902 16.1505 25.2667 16.8222C25.3391 17.7026 25.1337 18.5834 24.6792 19.3409C24.2247 20.0982 23.5442 20.6941 22.7333 21.0444Z" fill="#000000"/>
</svg>
